<svg xmlns="http://www.w3.org/2000/svg" width="147.584" height="200" viewBox="0 0 147.584 200"><g transform="translate(0 0)"><path d="M50.026,0a7.464,7.464,0,0,0-.752.047L49.04.072l.906-.049A28.411,28.411,0,0,0,45.186.4q-.219.035-.435.084Q44.273.59,43.8.715l.948-.185A46.777,46.777,0,0,0,30.129,4.873l-.089.045C12.031,14.024,2.345,33.682.389,56.369s3.452,49.077,16.354,74.591,30.95,45.51,50.381,57.382,41.006,15.727,59.015,6.62l.07-.037a46.36,46.36,0,0,0,10.393-7.4c.04-.031.077-.064.117-.1.708-.556,1.416-1.111,2.068-1.732l.016-.014a30.118,30.118,0,0,0,8.669-16.6,7.464,7.464,0,0,0-1.955-6.461L101.06,116.132a7.464,7.464,0,0,0-6.348-2.245,30.142,30.142,0,0,0-17,7.881l-.027.023a28.35,28.35,0,0,0-5.279,7.291A149.384,149.384,0,0,1,60.08,109.055l-.006-.012,0-.008a149.483,149.483,0,0,1-8.789-21.611,28.353,28.353,0,0,0,9.059.082l.037-.006a30.143,30.143,0,0,0,16.428-9.024,7.464,7.464,0,0,0,1.955-6.443L67.672,8.673a7.464,7.464,0,0,0-4.066-5.415,30.981,30.981,0,0,0-11.588-3A7.464,7.464,0,0,0,50.026,0Zm-.093,14.947.154.006a14.668,14.668,0,0,1,3.617.49l9.6,54.849a14.24,14.24,0,0,1-5.52,2.505c-4.088.7-8.571-.415-13.02-3.909a7.464,7.464,0,0,0-11.918,7.378,160.061,160.061,0,0,0,13.911,39.51l.01.019a159.955,159.955,0,0,0,23.672,34.676,7.464,7.464,0,0,0,13-5.2c-.149-5.6,1.6-9.833,4.568-12.69a14.244,14.244,0,0,1,5.3-2.966l38.389,40.144a14.223,14.223,0,0,1-3.209,5.137l0,0a13.376,13.376,0,0,1-1.3,1.088,7.467,7.467,0,0,0-.717.6,31.341,31.341,0,0,1-7.086,5.069c-12.189,6.148-27.947,4.046-44.466-6.047s-33.066-28.1-44.842-51.382S13.6,76.954,15.262,57.652c1.662-19.277,9.3-33.208,21.467-39.386a31.692,31.692,0,0,1,9.918-2.929,7.464,7.464,0,0,0,.947-.185l.144-.035a13.435,13.435,0,0,1,2.13-.169l.064,0Z" transform="translate(0 0)"/></g></svg>